<?xml version="1.0" encoding="UTF-8"?>
<svg width="372px" height="158px" viewBox="0 0 372 158" version="1.1" xmlns="http://www.w3.org/2000/svg" xmlns:xlink="http://www.w3.org/1999/xlink">
    <!-- Generator: Sketch 48.2 (47327) - http://www.bohemiancoding.com/sketch -->
    <title>404</title>
    <desc>Created with Sketch.</desc>
    <defs>
        <linearGradient x1="50%" y1="0%" x2="50%" y2="100%" id="linearGradient-1">
            <stop stop-color="#FFED00" offset="0%"></stop>
            <stop stop-color="#FFD700" offset="100%"></stop>
        </linearGradient>
    </defs>
    <g id="404_06-copy-7" stroke="none" stroke-width="1" fill="none" fill-rule="evenodd" transform="translate(-774.000000, -253.000000)">
        <path d="M893.209581,379.147705 L876.284764,379.147705 L876.284764,408.897538 L835.28676,408.897538 L835.28676,379.147705 L774,379.147705 L774,348.662009 L837.914837,255.207585 L876.284764,255.207585 L876.284764,348.136394 L893.209581,348.136394 L893.209581,379.147705 Z M835.28676,348.136394 L835.28676,330.265469 C835.28676,326.901513 835.409402,322.363746 835.654691,316.652029 C835.899979,310.940313 836.092703,307.944335 836.232868,307.664005 L835.076514,307.664005 C832.693712,313.060351 829.995579,318.106209 826.982036,322.80173 L809.952096,348.136394 L835.28676,348.136394 Z M1015.04724,332.262808 C1015.04724,359.454782 1010.49195,379.375408 1001.38124,392.025283 C992.270524,404.675158 978.324334,411 959.542249,411 C941.180658,411 927.33959,404.394832 918.018629,391.184298 C908.697669,377.973764 904.037259,358.333464 904.037259,332.262808 C904.037259,304.930668 908.592547,284.8874 917.70326,272.132402 C926.813973,259.377404 940.760163,253 959.542249,253 C977.833757,253 991.657305,259.640209 1001.01331,272.920825 C1010.36931,286.201441 1015.04724,305.981905 1015.04724,332.262808 Z M945.350632,332.262808 C945.350632,349.643245 946.436893,361.592116 948.609448,368.10978 C950.782002,374.627444 954.426233,377.886228 959.542249,377.886228 C964.728347,377.886228 968.390098,374.522322 970.527611,367.794411 C972.665125,361.0665 973.733866,349.222751 973.733866,332.262808 C973.733866,315.232782 972.647605,303.301431 970.47505,296.468397 C968.302495,289.635362 964.658265,286.218896 959.542249,286.218896 C954.426233,286.218896 950.782002,289.512719 948.609448,296.100466 C946.436893,302.688212 945.350632,314.742206 945.350632,332.262808 Z M1145.50499,379.147705 L1128.58017,379.147705 L1128.58017,408.897538 L1087.58217,408.897538 L1087.58217,379.147705 L1026.29541,379.147705 L1026.29541,348.662009 L1090.21025,255.207585 L1128.58017,255.207585 L1128.58017,348.136394 L1145.50499,348.136394 L1145.50499,379.147705 Z M1087.58217,348.136394 L1087.58217,330.265469 C1087.58217,326.901513 1087.70481,322.363746 1087.9501,316.652029 C1088.19539,310.940313 1088.38811,307.944335 1088.52828,307.664005 L1087.37192,307.664005 C1084.98912,313.060351 1082.29099,318.106209 1079.27745,322.80173 L1062.2475,348.136394 L1087.58217,348.136394 Z" id="404" fill="url(#linearGradient-1)"></path>
    </g>
</svg>