<?xml version="1.0" encoding="UTF-8"?>
<svg width="835px" height="325px" viewBox="0 0 835 325" version="1.1" xmlns="http://www.w3.org/2000/svg" xmlns:xlink="http://www.w3.org/1999/xlink">
    <!-- Generator: Sketch 48.2 (47327) - http://www.bohemiancoding.com/sketch -->
    <title>Group 28</title>
    <desc>Created with Sketch.</desc>
    <defs></defs>
    <g id="404" stroke="none" stroke-width="1" fill="none" fill-rule="evenodd">
        <g id="Group-28">
            <g id="Oval-6-Copy-69" transform="translate(266.000000, 0.000000)" fill="#FFFFFF">
                <g id="Group-12" opacity="0.800000012" transform="translate(33.000000, 33.000000)">
                    <ellipse id="Path" cx="136.765368" cy="2.14347478" rx="2.07392969" ry="2.07391058"></ellipse>
                    <ellipse id="Path" cx="150.071096" cy="3.71463514" rx="2.07392969" ry="2.07391058"></ellipse>
                    <ellipse id="Path" cx="163.14199" cy="6.60099925" rx="2.07392969" ry="2.07391058"></ellipse>
                    <ellipse id="Path" cx="175.839431" cy="10.7719067" rx="2.07392969" ry="2.07391058"></ellipse>
                    <ellipse id="Path" cx="188.028767" cy="16.1830902" rx="2.07392969" ry="2.07391058"></ellipse>
                    <ellipse id="Path" cx="199.580745" cy="22.7771453" rx="2.07392969" ry="2.07391058"></ellipse>
                    <ellipse id="Path" cx="210.364427" cy="30.4756912" rx="2.07392969" ry="2.07391058"></ellipse>
                    <ellipse id="Path" cx="220.287614" cy="39.2192298" rx="2.07392969" ry="2.07391058"></ellipse>
                    <ellipse id="Path" cx="229.231423" cy="48.9013845" rx="2.07392969" ry="2.07391058"></ellipse>
                    <ellipse id="Path" cx="237.101047" cy="59.4195201" rx="2.07392969" ry="2.07391058"></ellipse>
                    <ellipse id="Path" cx="243.813074" cy="70.6621514" rx="2.07392969" ry="2.07391058"></ellipse>
                    <ellipse id="Path" cx="249.296377" cy="82.5101243" rx="2.07392969" ry="2.07391058"></ellipse>
                    <ellipse id="Path" cx="253.492862" cy="94.8378796" rx="2.07392969" ry="2.07391058"></ellipse>
                    <ellipse id="Path" cx="256.35809" cy="107.514783" rx="2.07392969" ry="2.07391058"></ellipse>
                    <ellipse id="Path" cx="257.861741" cy="120.406508" rx="2.07392969" ry="2.07391058"></ellipse>
                    <ellipse id="Path" cx="257.987938" cy="133.376463" rx="2.07392969" ry="2.07391058"></ellipse>
                    <ellipse id="Path" cx="257.06368" cy="146.615496" rx="2.07392969" ry="2.07391058"></ellipse>
                    <ellipse id="Path" cx="254.879984" cy="159.764492" rx="2.07392969" ry="2.07391058"></ellipse>
                    <ellipse id="Path" cx="251.35041" cy="172.574481" rx="2.07392969" ry="2.07391058"></ellipse>
                    <ellipse id="Path" cx="246.512314" cy="184.909615" rx="2.07392969" ry="2.07391058"></ellipse>
                    <ellipse id="Path" cx="240.416932" cy="196.639092" rx="2.07392969" ry="2.07391058"></ellipse>
                    <ellipse id="Path" cx="233.12884" cy="207.638538" rx="2.07392969" ry="2.07391058"></ellipse>
                    <ellipse id="Path" cx="224.725268" cy="217.79133" rx="2.07392969" ry="2.07391058"></ellipse>
                    <ellipse id="Path" cx="215.295279" cy="226.989831" rx="2.07392969" ry="2.07391058"></ellipse>
                    <ellipse id="Path" cx="204.938831" cy="235.136531" rx="2.07392969" ry="2.07391058"></ellipse>
                    <ellipse id="Path" cx="193.765712" cy="242.14508" rx="2.07392969" ry="2.07391058"></ellipse>
                    <ellipse id="Path" cx="181.910621" cy="247.957447" rx="2.07392969" ry="2.07391058"></ellipse>
                    <ellipse id="Path" cx="169.471927" cy="252.484722" rx="2.07392969" ry="2.07391058"></ellipse>
                    <ellipse id="Path" cx="156.592603" cy="255.690035" rx="2.07392969" ry="2.07391058"></ellipse>
                    <ellipse id="Path" cx="143.409222" cy="257.539456" rx="2.07392969" ry="2.07391058"></ellipse>
                    <ellipse id="Path" cx="130.06159" cy="258.013441" rx="2.07392969" ry="2.07391058"></ellipse>
                    <ellipse id="Path" cx="116.908347" cy="257.324115" rx="2.07392969" ry="2.07391058"></ellipse>
                    <ellipse id="Path" cx="104.088921" cy="255.478785" rx="2.07392969" ry="2.07391058"></ellipse>
                    <ellipse id="Path" cx="91.5220496" cy="252.279863" rx="2.07392969" ry="2.07391058"></ellipse>
                    <ellipse id="Path" cx="79.340885" cy="247.761198" rx="2.07392969" ry="2.07391058"></ellipse>
                    <ellipse id="Path" cx="67.6745012" cy="241.970641" rx="2.07392969" ry="2.07391058"></ellipse>
                    <ellipse id="Path" cx="56.6354462" cy="234.958453" rx="2.07392969" ry="2.07391058"></ellipse>
                    <ellipse id="Path" cx="46.3680345" cy="226.826264" rx="2.07392969" ry="2.07391058"></ellipse>
                    <ellipse id="Path" cx="36.9648415" cy="217.644015" rx="2.07392969" ry="2.07391058"></ellipse>
                    <ellipse id="Path" cx="28.5255359" cy="207.509033" rx="2.07392969" ry="2.07391058"></ellipse>
                    <ellipse id="Path" cx="21.1395801" cy="196.528754" rx="2.07392969" ry="2.07391058"></ellipse>
                    <ellipse id="Path" cx="14.8852824" cy="184.819588" rx="2.07392969" ry="2.07391058"></ellipse>
                    <ellipse id="Path" cx="9.8289663" cy="172.505681" rx="2.07392969" ry="2.07391058"></ellipse>
                    <ellipse id="Path" cx="6.02426737" cy="159.717601" rx="2.07392969" ry="2.07391058"></ellipse>
                    <ellipse id="Path" cx="3.51156428" cy="146.590953" rx="2.07392969" ry="2.07391058"></ellipse>
                    <ellipse id="Path" cx="2.31755022" cy="133.26494" rx="2.07392969" ry="2.07391058"></ellipse>
                    <ellipse id="Path" cx="2.564471" cy="119.990409" rx="2.07392969" ry="2.07391058"></ellipse>
                    <ellipse id="Path" cx="4.46848928" cy="107.126853" rx="2.07392969" ry="2.07391058"></ellipse>
                    <ellipse id="Path" cx="7.68108547" cy="94.4822931" rx="2.07392969" ry="2.07391058"></ellipse>
                    <ellipse id="Path" cx="12.1681426" cy="82.1907035" rx="2.07392969" ry="2.07391058"></ellipse>
                    <ellipse id="Path" cx="17.8820436" cy="70.3823248" rx="2.07392969" ry="2.07391058"></ellipse>
                    <ellipse id="Path" cx="24.7621772" cy="59.1822861" rx="2.07392969" ry="2.07391058"></ellipse>
                    <ellipse id="Path" cx="32.7355803" cy="48.7092786" rx="2.07392969" ry="2.07391058"></ellipse>
                    <ellipse id="Path" cx="41.7177119" cy="39.0742979" rx="2.07392969" ry="2.07391058"></ellipse>
                    <ellipse id="Path" cx="51.6133497" cy="30.3794677" rx="2.07392969" ry="2.07391058"></ellipse>
                    <ellipse id="Path" cx="62.3175994" cy="22.7169572" rx="2.07392969" ry="2.07391058"></ellipse>
                    <ellipse id="Path" cx="73.7306863" cy="16.1816841" rx="2.07392969" ry="2.07391058"></ellipse>
                    <ellipse id="Path" cx="85.7095202" cy="10.8208151" rx="2.07392969" ry="2.07391058"></ellipse>
                    <ellipse id="Path" cx="98.1356048" cy="6.69965926" rx="2.07392969" ry="2.07391058"></ellipse>
                    <ellipse id="Path" cx="110.877265" cy="3.86194631" rx="2.07392969" ry="2.07391058"></ellipse>
                    <ellipse id="Path" cx="123.799491" cy="2.33781134" rx="2.07392969" ry="2.07391058"></ellipse>
                </g>
                <g id="Group-10" opacity="0.699999988" transform="translate(22.000000, 22.000000)">
                    <ellipse id="Path" cx="140.871066" cy="2.93863838" rx="2.0689725" ry="2.06895343"></ellipse>
                    <ellipse id="Path" cx="155.26125" cy="3.87500901" rx="2.0689725" ry="2.06895343"></ellipse>
                    <ellipse id="Path" cx="169.476154" cy="6.24159315" rx="2.0689725" ry="2.06895343"></ellipse>
                    <ellipse id="Path" cx="183.365031" cy="10.0132403" rx="2.0689725" ry="2.06895343"></ellipse>
                    <ellipse id="Path" cx="196.780602" cy="15.1499157" rx="2.0689725" ry="2.06895343"></ellipse>
                    <ellipse id="Path" cx="209.580615" cy="21.5971247" rx="2.0689725" ry="2.06895343"></ellipse>
                    <ellipse id="Path" cx="221.620922" cy="29.2780634" rx="2.0689725" ry="2.06895343"></ellipse>
                    <ellipse id="Path" cx="232.795951" cy="38.1333676" rx="2.0689725" ry="2.06895343"></ellipse>
                    <ellipse id="Path" cx="242.973583" cy="48.0555087" rx="2.0689725" ry="2.06895343"></ellipse>
                    <ellipse id="Path" cx="252.04593" cy="58.9393074" rx="2.0689725" ry="2.06895343"></ellipse>
                    <ellipse id="Path" cx="259.916833" cy="70.6694025" rx="2.0689725" ry="2.06895343"></ellipse>
                    <ellipse id="Path" cx="266.502879" cy="83.1214727" rx="2.0689725" ry="2.06895343"></ellipse>
                    <ellipse id="Path" cx="271.734286" cy="96.1635548" rx="2.0689725" ry="2.06895343"></ellipse>
                    <ellipse id="Path" cx="275.555642" cy="109.657442" rx="2.0689725" ry="2.06895343"></ellipse>
                    <ellipse id="Path" cx="277.926494" cy="123.460149" rx="2.0689725" ry="2.06895343"></ellipse>
                    <ellipse id="Path" cx="278.821772" cy="137.425426" rx="2.0689725" ry="2.06895343"></ellipse>
                    <ellipse id="Path" cx="278.559537" cy="151.732786" rx="2.0689725" ry="2.06895343"></ellipse>
                    <ellipse id="Path" cx="276.924313" cy="166.012313" rx="2.0689725" ry="2.06895343"></ellipse>
                    <ellipse id="Path" cx="273.824105" cy="180.003314" rx="2.0689725" ry="2.06895343"></ellipse>
                    <ellipse id="Path" cx="269.29172" cy="193.557423" rx="2.0689725" ry="2.06895343"></ellipse>
                    <ellipse id="Path" cx="263.375153" cy="206.530915" rx="2.0689725" ry="2.06895343"></ellipse>
                    <ellipse id="Path" cx="256.137085" cy="218.786231" rx="2.0689725" ry="2.06895343"></ellipse>
                    <ellipse id="Path" cx="247.654214" cy="230.193436" rx="2.0689725" ry="2.06895343"></ellipse>
                    <ellipse id="Path" cx="238.016447" cy="240.631594" rx="2.0689725" ry="2.06895343"></ellipse>
                    <ellipse id="Path" cx="227.325941" cy="249.990054" rx="2.0689725" ry="2.06895343"></ellipse>
                    <ellipse id="Path" cx="215.696026" cy="258.169624" rx="2.0689725" ry="2.06895343"></ellipse>
                    <ellipse id="Path" cx="203.266206" cy="265.099819" rx="2.0689725" ry="2.06895343"></ellipse>
                    <ellipse id="Path" cx="190.141007" cy="270.679945" rx="2.0689725" ry="2.06895343"></ellipse>
                    <ellipse id="Path" cx="176.470651" cy="274.861945" rx="2.0689725" ry="2.06895343"></ellipse>
                    <ellipse id="Path" cx="162.400096" cy="277.601536" rx="2.0689725" ry="2.06895343"></ellipse>
                    <ellipse id="Path" cx="148.078555" cy="278.869738" rx="2.0689725" ry="2.06895343"></ellipse>
                    <ellipse id="Path" cx="133.87447" cy="278.869738" rx="2.0689725" ry="2.06895343"></ellipse>
                    <ellipse id="Path" cx="119.938408" cy="277.601536" rx="2.0689725" ry="2.06895343"></ellipse>
                    <ellipse id="Path" cx="106.201464" cy="274.861945" rx="2.0689725" ry="2.06895343"></ellipse>
                    <ellipse id="Path" cx="92.809192" cy="270.679945" rx="2.0689725" ry="2.06895343"></ellipse>
                    <ellipse id="Path" cx="79.9035049" cy="265.099819" rx="2.0689725" ry="2.06895343"></ellipse>
                    <ellipse id="Path" cx="67.6101141" cy="258.169624" rx="2.0689725" ry="2.06895343"></ellipse>
                    <ellipse id="Path" cx="56.086565" cy="249.990054" rx="2.0689725" ry="2.06895343"></ellipse>
                    <ellipse id="Path" cx="45.4387873" cy="240.631594" rx="2.0689725" ry="2.06895343"></ellipse>
                    <ellipse id="Path" cx="35.7796425" cy="230.193436" rx="2.0689725" ry="2.06895343"></ellipse>
                    <ellipse id="Path" cx="27.2115237" cy="218.786231" rx="2.0689725" ry="2.06895343"></ellipse>
                    <ellipse id="Path" cx="19.8252704" cy="206.530915" rx="2.0689725" ry="2.06895343"></ellipse>
                    <ellipse id="Path" cx="13.6992049" cy="193.557423" rx="2.0689725" ry="2.06895343"></ellipse>
                    <ellipse id="Path" cx="8.89830251" cy="180.003314" rx="2.0689725" ry="2.06895343"></ellipse>
                    <ellipse id="Path" cx="5.47350164" cy="166.012313" rx="2.0689725" ry="2.06895343"></ellipse>
                    <ellipse id="Path" cx="3.46116384" cy="151.732786" rx="2.0689725" ry="2.06895343"></ellipse>
                    <ellipse id="Path" cx="2.99194741" cy="137.425426" rx="2.0689725" ry="2.06895343"></ellipse>
                    <ellipse id="Path" cx="4.28908331" cy="123.460149" rx="2.0689725" ry="2.06895343"></ellipse>
                    <ellipse id="Path" cx="7.01126985" cy="109.657442" rx="2.0689725" ry="2.06895343"></ellipse>
                    <ellipse id="Path" cx="11.1295886" cy="96.1635548" rx="2.0689725" ry="2.06895343"></ellipse>
                    <ellipse id="Path" cx="16.6003316" cy="83.1214727" rx="2.0689725" ry="2.06895343"></ellipse>
                    <ellipse id="Path" cx="23.365465" cy="70.6694025" rx="2.0689725" ry="2.06895343"></ellipse>
                    <ellipse id="Path" cx="31.3532447" cy="58.9393074" rx="2.0689725" ry="2.06895343"></ellipse>
                    <ellipse id="Path" cx="40.4789776" cy="48.0555087" rx="2.0689725" ry="2.06895343"></ellipse>
                    <ellipse id="Path" cx="50.645919" cy="38.1333676" rx="2.0689725" ry="2.06895343"></ellipse>
                    <ellipse id="Path" cx="61.7462989" cy="29.2780634" rx="2.0689725" ry="2.06895343"></ellipse>
                    <ellipse id="Path" cx="73.6761107" cy="21.5971247" rx="2.0689725" ry="2.06895343"></ellipse>
                    <ellipse id="Path" cx="86.2868397" cy="15.1499157" rx="2.0689725" ry="2.06895343"></ellipse>
                    <ellipse id="Path" cx="99.453271" cy="10.0132403" rx="2.0689725" ry="2.06895343"></ellipse>
                    <ellipse id="Path" cx="113.035882" cy="6.24159315" rx="2.0689725" ry="2.06895343"></ellipse>
                    <ellipse id="Path" cx="126.890747" cy="3.87500901" rx="2.0689725" ry="2.06895343"></ellipse>
                </g>
                <g id="Group-9" opacity="0.5" transform="translate(11.000000, 11.000000)">
                    <ellipse id="Path" cx="143.210535" cy="2.82784164" rx="2.0695678" ry="2.06954872"></ellipse>
                    <ellipse id="Path" cx="158.717838" cy="3.01995269" rx="2.0695678" ry="2.06954872"></ellipse>
                    <ellipse id="Path" cx="174.120493" cy="4.76110585" rx="2.0695678" ry="2.06954872"></ellipse>
                    <ellipse id="Path" cx="189.255165" cy="8.03278038" rx="2.0695678" ry="2.06954872"></ellipse>
                    <ellipse id="Path" cx="203.961368" cy="12.8002412" rx="2.0695678" ry="2.06954872"></ellipse>
                    <ellipse id="Path" cx="218.083168" cy="19.0129076" rx="2.0695678" ry="2.06954872"></ellipse>
                    <ellipse id="Path" cx="231.462405" cy="26.5964594" rx="2.0695678" ry="2.06954872"></ellipse>
                    <ellipse id="Path" cx="243.97932" cy="35.4925709" rx="2.0695678" ry="2.06954872"></ellipse>
                    <ellipse id="Path" cx="255.487564" cy="45.5932771" rx="2.0695678" ry="2.06954872"></ellipse>
                    <ellipse id="Path" cx="265.865146" cy="56.7915061" rx="2.0695678" ry="2.06954872"></ellipse>
                    <ellipse id="Path" cx="275.002071" cy="68.9685633" rx="2.0695678" ry="2.06954872"></ellipse>
                    <ellipse id="Path" cx="282.801506" cy="81.9953897" rx="2.0695678" ry="2.06954872"></ellipse>
                    <ellipse id="Path" cx="289.180805" cy="95.7339296" rx="2.0695678" ry="2.06954872"></ellipse>
                    <ellipse id="Path" cx="294.072391" cy="110.038594" rx="2.0695678" ry="2.06954872"></ellipse>
                    <ellipse id="Path" cx="297.424464" cy="124.757802" rx="2.0695678" ry="2.06954872"></ellipse>
                    <ellipse id="Path" cx="299.201553" cy="139.735589" rx="2.0695678" ry="2.06954872"></ellipse>
                    <ellipse id="Path" cx="299.712467" cy="155.140831" rx="2.0695678" ry="2.06954872"></ellipse>
                    <ellipse id="Path" cx="298.733471" cy="170.591909" rx="2.0695678" ry="2.06954872"></ellipse>
                    <ellipse id="Path" cx="296.165582" cy="185.815681" rx="2.0695678" ry="2.06954872"></ellipse>
                    <ellipse id="Path" cx="292.035965" cy="200.650713" rx="2.0695678" ry="2.06954872"></ellipse>
                    <ellipse id="Path" cx="286.388345" cy="214.939703" rx="2.0695678" ry="2.06954872"></ellipse>
                    <ellipse id="Path" cx="279.282553" cy="228.531146" rx="2.0695678" ry="2.06954872"></ellipse>
                    <ellipse id="Path" cx="270.793884" cy="241.280944" rx="2.0695678" ry="2.06954872"></ellipse>
                    <ellipse id="Path" cx="261.012305" cy="253.05393" rx="2.0695678" ry="2.06954872"></ellipse>
                    <ellipse id="Path" cx="250.0415" cy="263.725303" rx="2.0695678" ry="2.06954872"></ellipse>
                    <ellipse id="Path" cx="237.99777" cy="273.181953" rx="2.0695678" ry="2.06954872"></ellipse>
                    <ellipse id="Path" cx="225.025008" cy="281.339863" rx="2.0695678" ry="2.06954872"></ellipse>
                    <ellipse id="Path" cx="211.23349" cy="288.085318" rx="2.0695678" ry="2.06954872"></ellipse>
                    <ellipse id="Path" cx="196.780502" cy="293.357909" rx="2.0695678" ry="2.06954872"></ellipse>
                    <ellipse id="Path" cx="181.819302" cy="297.101795" rx="2.0695678" ry="2.06954872"></ellipse>
                    <ellipse id="Path" cx="166.508539" cy="299.277349" rx="2.0695678" ry="2.06954872"></ellipse>
                    <ellipse id="Path" cx="151.227206" cy="300.078203" rx="2.0695678" ry="2.06954872"></ellipse>
                    <ellipse id="Path" cx="136.13729" cy="299.495866" rx="2.0695678" ry="2.06954872"></ellipse>
                    <ellipse id="Path" cx="121.182053" cy="297.319819" rx="2.0695678" ry="2.06954872"></ellipse>
                    <ellipse id="Path" cx="106.519964" cy="293.573071" rx="2.0695678" ry="2.06954872"></ellipse>
                    <ellipse id="Path" cx="92.3063965" cy="288.295287" rx="2.0695678" ry="2.06954872"></ellipse>
                    <ellipse id="Path" cx="78.6809219" cy="281.531318" rx="2.0695678" ry="2.06954872"></ellipse>
                    <ellipse id="Path" cx="65.8152141" cy="273.380105" rx="2.0695678" ry="2.06954872"></ellipse>
                    <ellipse id="Path" cx="53.8294255" cy="263.911824" rx="2.0695678" ry="2.06954872"></ellipse>
                    <ellipse id="Path" cx="42.8506008" cy="253.226835" rx="2.0695678" ry="2.06954872"></ellipse>
                    <ellipse id="Path" cx="32.995122" cy="241.438405" rx="2.0695678" ry="2.06954872"></ellipse>
                    <ellipse id="Path" cx="24.3674749" cy="228.671508" rx="2.0695678" ry="2.06954872"></ellipse>
                    <ellipse id="Path" cx="17.059141" cy="215.061505" rx="2.0695678" ry="2.06954872"></ellipse>
                    <ellipse id="Path" cx="11.1476279" cy="200.752701" rx="2.0695678" ry="2.06954872"></ellipse>
                    <ellipse id="Path" cx="6.69564667" cy="185.896821" rx="2.0695678" ry="2.06954872"></ellipse>
                    <ellipse id="Path" cx="3.75044739" cy="170.6514" rx="2.0695678" ry="2.06954872"></ellipse>
                    <ellipse id="Path" cx="2.45260834" cy="155.287399" rx="2.0695678" ry="2.06954872"></ellipse>
                    <ellipse id="Path" cx="3.03420688" cy="140.185999" rx="2.0695678" ry="2.06954872"></ellipse>
                    <ellipse id="Path" cx="5.16143193" cy="125.179636" rx="2.0695678" ry="2.06954872"></ellipse>
                    <ellipse id="Path" cx="8.81167185" cy="110.427318" rx="2.0695678" ry="2.06954872"></ellipse>
                    <ellipse id="Path" cx="13.9461803" cy="96.0853704" rx="2.0695678" ry="2.06954872"></ellipse>
                    <ellipse id="Path" cx="20.5104876" cy="82.3057791" rx="2.0695678" ry="2.06954872"></ellipse>
                    <ellipse id="Path" cx="28.4349786" cy="69.2345792" rx="2.0695678" ry="2.06954872"></ellipse>
                    <ellipse id="Path" cx="37.6356309" cy="57.0103079" rx="2.0695678" ry="2.06954872"></ellipse>
                    <ellipse id="Path" cx="48.0149058" cy="45.762536" rx="2.0695678" ry="2.06954872"></ellipse>
                    <ellipse id="Path" cx="59.4627823" cy="35.6104946" rx="2.0695678" ry="2.06954872"></ellipse>
                    <ellipse id="Path" cx="71.8715744" cy="26.6754619" rx="2.0695678" ry="2.06954872"></ellipse>
                    <ellipse id="Path" cx="85.0876835" cy="19.0300896" rx="2.0695678" ry="2.06954872"></ellipse>
                    <ellipse id="Path" cx="98.9794802" cy="12.7638849" rx="2.0695678" ry="2.06954872"></ellipse>
                    <ellipse id="Path" cx="113.399752" cy="7.9433157" rx="2.0695678" ry="2.06954872"></ellipse>
                    <ellipse id="Path" cx="128.195696" cy="4.6195356" rx="2.0695678" ry="2.06954872"></ellipse>
                </g>
                <g id="Group-7" opacity="0.300000012" transform="translate(162.500000, 162.500000) rotate(-360.000000) translate(-162.500000, -162.500000) ">
                    <ellipse id="Path" cx="162.362646" cy="2.8093982" rx="2.07008278" ry="2.07006369"></ellipse>
                    <ellipse id="Path" cx="178.978479" cy="3.86063523" rx="2.07008278" ry="2.07006369"></ellipse>
                    <ellipse id="Path" cx="195.395428" cy="6.5703688" rx="2.07008278" ry="2.07006369"></ellipse>
                    <ellipse id="Path" cx="211.439403" cy="10.909811" rx="2.07008278" ry="2.07006369"></ellipse>
                    <ellipse id="Path" cx="226.940281" cy="16.832908" rx="2.07008278" ry="2.07006369"></ellipse>
                    <ellipse id="Path" cx="241.733703" cy="24.2768292" rx="2.07008278" ry="2.07006369"></ellipse>
                    <ellipse id="Path" cx="255.65439" cy="33.1542006" rx="2.07008278" ry="2.07006369"></ellipse>
                    <ellipse id="Path" cx="268.576845" cy="43.3929873" rx="2.07008278" ry="2.07006369"></ellipse>
                    <ellipse id="Path" cx="280.350421" cy="54.8709881" rx="2.07008278" ry="2.07006369"></ellipse>
                    <ellipse id="Path" cx="290.850312" cy="67.4665314" rx="2.07008278" ry="2.07006369"></ellipse>
                    <ellipse id="Path" cx="299.965226" cy="81.0461109" rx="2.07008278" ry="2.07006369"></ellipse>
                    <ellipse id="Path" cx="307.598565" cy="95.4658004" rx="2.07008278" ry="2.07006369"></ellipse>
                    <ellipse id="Path" cx="313.669444" cy="110.572779" rx="2.07008278" ry="2.07006369"></ellipse>
                    <ellipse id="Path" cx="318.113553" cy="126.206953" rx="2.07008278" ry="2.07006369"></ellipse>
                    <ellipse id="Path" cx="320.883836" cy="142.202648" rx="2.07008278" ry="2.07006369"></ellipse>
                    <ellipse id="Path" cx="321.950991" cy="158.390368" rx="2.07008278" ry="2.07006369"></ellipse>
                    <ellipse id="Path" cx="321.631433" cy="174.926245" rx="2.07008278" ry="2.07006369"></ellipse>
                    <ellipse id="Path" cx="319.710175" cy="191.41662" rx="2.07008278" ry="2.07006369"></ellipse>
                    <ellipse id="Path" cx="316.098196" cy="207.577309" rx="2.07008278" ry="2.07006369"></ellipse>
                    <ellipse id="Path" cx="310.833728" cy="223.236945" rx="2.07008278" ry="2.07006369"></ellipse>
                    <ellipse id="Path" cx="303.972527" cy="238.229485" rx="2.07008278" ry="2.07006369"></ellipse>
                    <ellipse id="Path" cx="295.587286" cy="252.395966" rx="2.07008278" ry="2.07006369"></ellipse>
                    <ellipse id="Path" cx="285.766864" cy="265.586195" rx="2.07008278" ry="2.07006369"></ellipse>
                    <ellipse id="Path" cx="274.615345" cy="277.660336" rx="2.07008278" ry="2.07006369"></ellipse>
                    <ellipse id="Path" cx="262.250935" cy="288.490396" rx="2.07008278" ry="2.07006369"></ellipse>
                    <ellipse id="Path" cx="248.804706" cy="297.961582" rx="2.07008278" ry="2.07006369"></ellipse>
                    <ellipse id="Path" cx="234.435423" cy="305.989729" rx="2.07008278" ry="2.07006369"></ellipse>
                    <ellipse id="Path" cx="219.268158" cy="312.462488" rx="2.07008278" ry="2.07006369"></ellipse>
                    <ellipse id="Path" cx="203.474784" cy="317.322345" rx="2.07008278" ry="2.07006369"></ellipse>
                    <ellipse id="Path" cx="187.222766" cy="320.517835" rx="2.07008278" ry="2.07006369"></ellipse>
                    <ellipse id="Path" cx="170.684438" cy="322.015142" rx="2.07008278" ry="2.07006369"></ellipse>
                    <ellipse id="Path" cx="154.251859" cy="322.015142" rx="2.07008278" ry="2.07006369"></ellipse>
                    <ellipse id="Path" cx="138.099217" cy="320.517835" rx="2.07008278" ry="2.07006369"></ellipse>
                    <ellipse id="Path" cx="122.180988" cy="317.322345" rx="2.07008278" ry="2.07006369"></ellipse>
                    <ellipse id="Path" cx="106.665848" cy="312.462488" rx="2.07008278" ry="2.07006369"></ellipse>
                    <ellipse id="Path" cx="91.7182132" cy="305.989729" rx="2.07008278" ry="2.07006369"></ellipse>
                    <ellipse id="Path" cx="77.4854332" cy="297.961582" rx="2.07008278" ry="2.07006369"></ellipse>
                    <ellipse id="Path" cx="64.1456266" cy="288.490396" rx="2.07008278" ry="2.07006369"></ellipse>
                    <ellipse id="Path" cx="51.823967" cy="277.660336" rx="2.07008278" ry="2.07006369"></ellipse>
                    <ellipse id="Path" cx="40.6510597" cy="265.586195" rx="2.07008278" ry="2.07006369"></ellipse>
                    <ellipse id="Path" cx="30.7453439" cy="252.395966" rx="2.07008278" ry="2.07006369"></ellipse>
                    <ellipse id="Path" cx="22.211838" cy="238.229485" rx="2.07008278" ry="2.07006369"></ellipse>
                    <ellipse id="Path" cx="15.1410255" cy="223.236945" rx="2.07008278" ry="2.07006369"></ellipse>
                    <ellipse id="Path" cx="9.60789614" cy="207.577309" rx="2.07008278" ry="2.07006369"></ellipse>
                    <ellipse id="Path" cx="5.67115033" cy="191.41662" rx="2.07008278" ry="2.07006369"></ellipse>
                    <ellipse id="Path" cx="3.37257633" cy="174.926245" rx="2.07008278" ry="2.07006369"></ellipse>
                    <ellipse id="Path" cx="2.84592528" cy="158.390368" rx="2.07008278" ry="2.07006369"></ellipse>
                    <ellipse id="Path" cx="4.31515409" cy="142.202648" rx="2.07008278" ry="2.07006369"></ellipse>
                    <ellipse id="Path" cx="7.43696106" cy="126.206953" rx="2.07008278" ry="2.07006369"></ellipse>
                    <ellipse id="Path" cx="12.1781917" cy="110.572779" rx="2.07008278" ry="2.07006369"></ellipse>
                    <ellipse id="Path" cx="18.4885349" cy="95.4658004" rx="2.07008278" ry="2.07006369"></ellipse>
                    <ellipse id="Path" cx="26.3010568" cy="81.0461109" rx="2.07008278" ry="2.07006369"></ellipse>
                    <ellipse id="Path" cx="35.5329109" cy="67.4665314" rx="2.07008278" ry="2.07006369"></ellipse>
                    <ellipse id="Path" cx="46.0862164" cy="54.8709881" rx="2.07008278" ry="2.07006369"></ellipse>
                    <ellipse id="Path" cx="57.8490961" cy="43.3929873" rx="2.07008278" ry="2.07006369"></ellipse>
                    <ellipse id="Path" cx="70.6968625" cy="33.1542006" rx="2.07008278" ry="2.07006369"></ellipse>
                    <ellipse id="Path" cx="84.5069938" cy="24.2768292" rx="2.07008278" ry="2.07006369"></ellipse>
                    <ellipse id="Path" cx="99.1110313" cy="16.832908" rx="2.07008278" ry="2.07006369"></ellipse>
                    <ellipse id="Path" cx="114.362635" cy="10.909811" rx="2.07008278" ry="2.07006369"></ellipse>
                    <ellipse id="Path" cx="130.10018" cy="6.5703688" rx="2.07008278" ry="2.07006369"></ellipse>
                    <ellipse id="Path" cx="146.156897" cy="3.86063523" rx="2.07008278" ry="2.07006369"></ellipse>
                </g>
                <g id="Oval-6-Copy-7" transform="translate(43.000000, 42.000000)">
                    <ellipse id="Path" cx="119.681308" cy="2.07109102" rx="2.07111011" ry="2.07109102"></ellipse>
                    <ellipse id="Path" cx="131.98326" cy="2.89978296" rx="2.07111011" ry="2.07109102"></ellipse>
                    <ellipse id="Path" cx="144.132044" cy="4.94402548" rx="2.07111011" ry="2.07109102"></ellipse>
                    <ellipse id="Path" cx="155.998815" cy="8.18208495" rx="2.07111011" ry="2.07109102"></ellipse>
                    <ellipse id="Path" cx="167.457728" cy="12.5795826" rx="2.07111011" ry="2.07109102"></ellipse>
                    <ellipse id="Path" cx="178.387272" cy="18.0898594" rx="2.07111011" ry="2.07109102"></ellipse>
                    <ellipse id="Path" cx="188.663119" cy="24.6460343" rx="2.07111011" ry="2.07109102"></ellipse>
                    <ellipse id="Path" cx="198.198422" cy="32.2006886" rx="2.07111011" ry="2.07109102"></ellipse>
                    <ellipse id="Path" cx="206.87843" cy="40.6600669" rx="2.07111011" ry="2.07109102"></ellipse>
                    <ellipse id="Path" cx="214.61113" cy="49.9344956" rx="2.07111011" ry="2.07109102"></ellipse>
                    <ellipse id="Path" cx="221.314564" cy="59.925673" rx="2.07111011" ry="2.07109102"></ellipse>
                    <ellipse id="Path" cx="226.917694" cy="70.527711" rx="2.07111011" ry="2.07109102"></ellipse>
                    <ellipse id="Path" cx="231.361158" cy="81.6282573" rx="2.07111011" ry="2.07109102"></ellipse>
                    <ellipse id="Path" cx="234.597896" cy="93.1096859" rx="2.07111011" ry="2.07109102"></ellipse>
                    <ellipse id="Path" cx="236.593651" cy="104.850344" rx="2.07111011" ry="2.07109102"></ellipse>
                    <ellipse id="Path" cx="237.327331" cy="116.72584" rx="2.07111011" ry="2.07109102"></ellipse>
                    <ellipse id="Path" cx="237.119047" cy="128.938177" rx="2.07111011" ry="2.07109102"></ellipse>
                    <ellipse id="Path" cx="235.752527" cy="141.139422" rx="2.07111011" ry="2.07109102"></ellipse>
                    <ellipse id="Path" cx="233.132814" cy="153.0908" rx="2.07111011" ry="2.07109102"></ellipse>
                    <ellipse id="Path" cx="229.28762" cy="164.665564" rx="2.07111011" ry="2.07109102"></ellipse>
                    <ellipse id="Path" cx="224.257659" cy="175.740972" rx="2.07111011" ry="2.07109102"></ellipse>
                    <ellipse id="Path" cx="218.09621" cy="186.199583" rx="2.07111011" ry="2.07109102"></ellipse>
                    <ellipse id="Path" cx="210.868562" cy="195.930509" rx="2.07111011" ry="2.07109102"></ellipse>
                    <ellipse id="Path" cx="202.651313" cy="204.830584" rx="2.07111011" ry="2.07109102"></ellipse>
                    <ellipse id="Path" cx="193.531565" cy="212.80546" rx="2.07111011" ry="2.07109102"></ellipse>
                    <ellipse id="Path" cx="183.605996" cy="219.770609" rx="2.07111011" ry="2.07109102"></ellipse>
                    <ellipse id="Path" cx="172.996061" cy="225.66844" rx="2.07111011" ry="2.07109102"></ellipse>
                    <ellipse id="Path" cx="161.786965" cy="230.409172" rx="2.07111011" ry="2.07109102"></ellipse>
                    <ellipse id="Path" cx="150.108632" cy="233.953656" rx="2.07111011" ry="2.07109102"></ellipse>
                    <ellipse id="Path" cx="138.084905" cy="236.26437" rx="2.07111011" ry="2.07109102"></ellipse>
                    <ellipse id="Path" cx="125.843298" cy="237.316878" rx="2.07111011" ry="2.07109102"></ellipse>
                    <ellipse id="Path" cx="113.730429" cy="237.316878" rx="2.07111011" ry="2.07109102"></ellipse>
                    <ellipse id="Path" cx="101.8747" cy="236.26437" rx="2.07111011" ry="2.07109102"></ellipse>
                    <ellipse id="Path" cx="90.1849272" cy="233.953656" rx="2.07111011" ry="2.07109102"></ellipse>
                    <ellipse id="Path" cx="78.7849662" cy="230.409172" rx="2.07111011" ry="2.07109102"></ellipse>
                    <ellipse id="Path" cx="67.7956098" cy="225.66844" rx="2.07111011" ry="2.07109102"></ellipse>
                    <ellipse id="Path" cx="57.3222446" cy="219.770609" rx="2.07111011" ry="2.07109102"></ellipse>
                    <ellipse id="Path" cx="47.5031513" cy="212.80546" rx="2.07111011" ry="2.07109102"></ellipse>
                    <ellipse id="Path" cx="38.4261753" cy="204.830584" rx="2.07111011" ry="2.07109102"></ellipse>
                    <ellipse id="Path" cx="30.1875273" cy="195.930509" rx="2.07111011" ry="2.07109102"></ellipse>
                    <ellipse id="Path" cx="22.8745426" cy="186.199583" rx="2.07111011" ry="2.07109102"></ellipse>
                    <ellipse id="Path" cx="16.564756" cy="175.740972" rx="2.07111011" ry="2.07109102"></ellipse>
                    <ellipse id="Path" cx="11.3250793" cy="164.665564" rx="2.07111011" ry="2.07109102"></ellipse>
                    <ellipse id="Path" cx="7.21109144" cy="153.0908" rx="2.07111011" ry="2.07109102"></ellipse>
                    <ellipse id="Path" cx="4.26644973" cy="141.139422" rx="2.07111011" ry="2.07109102"></ellipse>
                    <ellipse id="Path" cx="2.52242591" cy="128.938177" rx="2.07111011" ry="2.07109102"></ellipse>
                    <ellipse id="Path" cx="2.10694702" cy="116.72584" rx="2.07111011" ry="2.07109102"></ellipse>
                    <ellipse id="Path" cx="3.2428999" cy="104.850344" rx="2.07111011" ry="2.07109102"></ellipse>
                    <ellipse id="Path" cx="5.59035301" cy="93.1096859" rx="2.07111011" ry="2.07109102"></ellipse>
                    <ellipse id="Path" cx="9.12436017" cy="81.6282573" rx="2.07111011" ry="2.07109102"></ellipse>
                    <ellipse id="Path" cx="13.8074071" cy="70.527711" rx="2.07111011" ry="2.07109102"></ellipse>
                    <ellipse id="Path" cx="19.5898097" cy="59.925673" rx="2.07111011" ry="2.07109102"></ellipse>
                    <ellipse id="Path" cx="26.4102412" cy="49.9344956" rx="2.07111011" ry="2.07109102"></ellipse>
                    <ellipse id="Path" cx="34.1963825" cy="40.6600669" rx="2.07111011" ry="2.07109102"></ellipse>
                    <ellipse id="Path" cx="42.865689" cy="32.2006886" rx="2.07111011" ry="2.07109102"></ellipse>
                    <ellipse id="Path" cx="52.3262658" cy="24.6460343" rx="2.07111011" ry="2.07109102"></ellipse>
                    <ellipse id="Path" cx="62.491503" cy="18.0898594" rx="2.07111011" ry="2.07109102"></ellipse>
                    <ellipse id="Path" cx="73.2315678" cy="12.5795826" rx="2.07111011" ry="2.07109102"></ellipse>
                    <ellipse id="Path" cx="84.4410837" cy="8.18208495" rx="2.07111011" ry="2.07109102"></ellipse>
                    <ellipse id="Path" cx="96.0012715" cy="4.94402548" rx="2.07111011" ry="2.07109102"></ellipse>
                    <ellipse id="Path" cx="107.789645" cy="2.89978296" rx="2.07111011" ry="2.07109102"></ellipse>
                </g>
            </g>
            <path d="M147.274016,20.5677798 L114.015602,1.3660254 L1.3660254,196.480815 L34.6244396,215.682569 L34.6538789,215.631579 L129.947368,215.631579 L129.947368,296.438596 L168.350877,296.438596 L168.350877,215.631579 L195,215.631579 L195,177.22807 L168.350877,177.22807 L168.350877,148 L129.947368,148 L129.947368,177.22807 L56.826155,177.22807 L147.274016,20.5677798 Z" id="Combined-Shape-Copy-13" stroke-opacity="0.457342618" stroke="#FFFFFF" stroke-width="2"></path>
            <path d="M786.274016,20.5677798 L753.015602,1.3660254 L640.366025,196.480815 L673.62444,215.682569 L673.653879,215.631579 L768.947368,215.631579 L768.947368,296.438596 L807.350877,296.438596 L807.350877,215.631579 L834,215.631579 L834,177.22807 L807.350877,177.22807 L807.350877,148 L768.947368,148 L768.947368,177.22807 L695.826155,177.22807 L786.274016,20.5677798 Z" id="Combined-Shape-Copy-14" stroke-opacity="0.457342618" stroke="#FFFFFF" stroke-width="2"></path>
        </g>
    </g>
</svg>